# xmcd
#
# Track frame offsets:
#	150
#	17380
#	33723
#	53842
#	64270
#	81221
#	100244
#	119655
#	132348
#	152570
#	173360
#	187378
#	208245
#	225888
#	251889
#	276458
#
# Disc length: 3850 seconds
#
# Revision: 1
# Processed by: cddbd v1.5.2PL0 Copyright (c) Steve Scherf et al.
# Submitted via: audiograbber 1.83.01
#
DISCID=e50f0810
DTITLE=78 Twins - 25 Years of Music
DYEAR=2008
DGENRE=Blues
TTITLE0=Keep on moving
TTITLE1=No one but you
TTITLE2=Wonderful
TTITLE3=Blind guy
TTITLE4=You said you love me
TTITLE5=Who counts the tears?
TTITLE6=Girl
TTITLE7=Girl across the way
TTITLE8=My best friend
TTITLE9=Greatest star on earth
TTITLE10=Turning wheels
TTITLE11=Say what you wanna say
TTITLE12=Until you came
TTITLE13=I don't wanna fight no more
TTITLE14=Place of the dreamer
TTITLE15=Give me love
EXTD=
EXTT0=
EXTT1=
EXTT2=
EXTT3=
EXTT4=
EXTT5=
EXTT6=
EXTT7=
EXTT8=
EXTT9=
EXTT10=
EXTT11=
EXTT12=
EXTT13=
EXTT14=
EXTT15=
PLAYORDER=
